<svg xmlns="http://www.w3.org/2000/svg" width="1em" height="1em" viewBox="0 0 24 24"><path fill="white" d="M17.094 7.146c.593-.215.888-.292 1.05-.32q.002.08-.002.122c-.232 2.444-1.251 8.457-1.775 11.255c-.122.655-.216.967-.85.595c-.416-.245-.792-.553-1.196-.817c-1.325-.869-3.221-2.162-3.065-2.084c-1.304-.86-.758-1.386-.03-2.088c.117-.113.24-.231.36-.356c.054-.056.317-.3.687-.645c1.188-1.104 3.484-3.239 3.542-3.486c.01-.04.018-.192-.071-.271c-.09-.08-.223-.053-.318-.031q-.203.046-6.474 4.279q-.918.63-1.664.614l.005.003c-.655-.231-1.308-.43-1.964-.63a66 66 0 0 1-1.3-.405l-.308-.098c4.527-1.972 7.542-3.27 9.053-3.899c2.194-.913 3.496-1.438 4.32-1.738m2.423-1.928a1.8 1.8 0 0 0-.726-.346c-.2-.048-.39-.063-.533-.06c-.477.008-.988.143-1.846.454c-.875.318-2.219.862-4.406 1.771Q9.691 8 2.804 11.001c-.404.161-.773.344-1.065.56c-.27.201-.647.56-.716 1.11c-.052.416.069.8.315 1.103c.214.263.488.423.697.524c.31.15.728.281 1.095.396c.573.18 1.144.363 1.719.539c1.778.544 3.242.992 4.852 2.054c1.181.778 2.34 1.59 3.523 2.366c.432.283.835.608 1.28.87c.488.285 1.106.546 1.86.477c1.138-.105 1.73-1.152 1.97-2.43c.521-2.79 1.557-8.886 1.8-11.432a3.8 3.8 0 0 0-.037-.885a1.66 1.66 0 0 0-.58-1.035"/></svg>